<svg xmlns="http://www.w3.org/2000/svg" width="512" height="512" viewBox="96 93 892 892" fill="none"><title>Warp</title>
<rect x="96" y="93" width="892" height="892" fill="#121212"/>
<path d="M921 646H163V433H921V646ZM179.147 630.22H905.083V449.069H179.147V630.22Z" fill="#00FF33"/>
<path d="M508.668 494.324L544.884 584.495H566.395L530.179 494.324H508.668Z" fill="#00FF33"/>
<path d="M410.984 584.495H432.495L468.711 494.324H447.2L410.984 584.495Z" fill="#00FF33"/>
<path d="M336.287 556.635L319.678 515.133H295.746L279.137 556.635L252.84 494.324H231.906L269.852 584.495H288.768L307.683 537.271L326.599 584.495H345.514L383.518 494.324H362.526L336.287 556.635Z" fill="#00FF33"/>
<path d="M704.914 528.374C704.868 519.411 701.28 510.831 694.935 504.515C688.589 498.198 680.005 494.66 671.062 494.676H609.184V584.5H628.503V562.073H668.352L677.348 584.5H698.167L687.498 557.795C692.743 554.89 697.115 550.628 700.158 545.454C703.201 540.279 704.804 534.381 704.799 528.374H704.914ZM628.503 513.982H671.062C674.886 513.982 678.553 515.504 681.257 518.214C683.961 520.924 685.48 524.6 685.48 528.432C685.48 532.265 683.961 535.94 681.257 538.65C678.553 541.36 674.886 542.883 671.062 542.883H628.503V513.982Z" fill="#00FF33"/>
<path d="M818.532 494.676H756.711V584.5H775.972V562.073H818.532C822.947 562.073 827.319 561.201 831.398 559.508C835.477 557.814 839.184 555.332 842.306 552.203C845.428 549.074 847.904 545.359 849.594 541.27C851.283 537.182 852.153 532.8 852.153 528.374C852.153 523.949 851.283 519.567 849.594 515.478C847.904 511.39 845.428 507.675 842.306 504.546C839.184 501.417 835.477 498.934 831.398 497.241C827.319 495.547 822.947 494.676 818.532 494.676ZM818.532 542.825H775.972V513.924H818.532C822.356 513.924 826.023 515.446 828.726 518.156C831.43 520.866 832.949 524.542 832.949 528.374C832.949 532.207 831.43 535.882 828.726 538.592C826.023 541.302 822.356 542.825 818.532 542.825Z" fill="#00FF33"/>
<path d="M498.402 520.695H479.086V541.385H498.402V520.695Z" fill="#00FF33"/>
<path d="M479.086 584.498H498.402V564.039H479.086V584.498Z" fill="#00FF33"/>
</svg>
